<?xml version="1.0" encoding="utf-8"?>
<svg version="1.1" xmlns="http://www.w3.org/2000/svg" width="500px" height="500px" transform="rotate(0) scale(1, 1)" viewBox="20.096 -29.151 463.327 459.749">
  <g transform="matrix(1, 0, 0, 1, 521.27533, -130.271118)">
    <g>
      <path d="M -147.54 420.065 C -123.05 421.141 -92.286 423.321 -73.53 440.721 C -68.884 446.198 -67.923 450.971 -68.14 457.971 C -69.203 466.146 -73.524 472.021 -79.812 477.139 C -91.712 485.533 -105.25 490.228 -118.86 495.1 C -121.06 495.89 -123.24 496.701 -125.42 497.534 C -134.86 501.079 -144.55 503.603 -154.29 506.191 C -161.64 508.165 -168.96 510.221 -176.29 512.262 C -181.88 513.808 -187.46 515.329 -193.07 516.776 C -194 517.015 -194.93 517.254 -195.88 517.5 C -201.69 518.733 -206.55 519.063 -211.92 516.377 C -216.09 512.697 -219.06 509.521 -219.85 503.866 C -220.16 497.847 -219.17 494.485 -215.44 489.756 C -209.88 484.806 -202.77 483.772 -195.73 482.19 C -186.83 480.126 -178.05 477.875 -169.31 475.213 C -165.72 474.118 -162.1 473.083 -158.48 472.065 C -146.83 468.74 -135.33 465.092 -123.95 460.944 C -118.75 459.065 -118.75 459.065 -116.54 459.065 C -116.54 458.405 -116.54 457.745 -116.54 457.065 C -128.2 455.572 -139.86 454.224 -151.54 452.94 C -153.2 452.757 -154.87 452.573 -156.53 452.389 C -160.53 451.947 -164.54 451.505 -168.54 451.065 C -167.62 449.841 -166.71 448.617 -165.79 447.393 C -165.24 446.66 -164.69 445.927 -164.12 445.172 C -162.9 443.546 -161.68 441.922 -160.45 440.299 C -155.63 433.822 -151.48 427.111 -147.54 420.065 Z M -355.04 212.565 C -356.98 217.084 -356.98 217.084 -356.78 226.237 C -356.33 231.601 -352.86 234.876 -348.98 238.377 C -344.17 240.737 -339.81 240.569 -334.54 240.065 C -329.73 238.46 -326.61 235.519 -323.67 231.502 C -321.81 225.816 -321.19 219.566 -323.39 213.874 C -325.88 209.966 -329.14 207.559 -333.37 205.729 C -342.44 202.956 -348.61 206.135 -355.04 212.565 Z M -301.73 164.69 C -300.48 164.687 -300.48 164.687 -299.2 164.684 C -284.19 164.688 -269.92 165.967 -255.42 170.127 C -254.35 170.431 -253.29 170.734 -252.19 171.046 C -208.11 184.069 -172.18 213.913 -149.72 253.877 C -130.81 289.09 -122.59 336.561 -133.81 375.65 C -134.17 376.845 -134.17 376.845 -134.54 378.065 C -134.82 378.988 -135.1 379.912 -135.39 380.863 C -147.82 420.852 -171.43 454.716 -206.54 478.065 C -207.41 478.643 -207.41 478.643 -208.29 479.233 C -219.05 486.313 -230.58 491.35 -242.54 496.065 C -243.21 496.333 -243.88 496.601 -244.57 496.878 C -248.82 498.55 -253.12 499.913 -257.54 501.065 C -258.28 501.26 -259.02 501.454 -259.79 501.655 C -273.31 504.998 -286.75 505.437 -300.6 505.44 C -301.86 505.443 -301.86 505.443 -303.13 505.446 C -325.24 505.44 -346.12 501.62 -366.54 493.065 C -367.21 492.792 -367.87 492.52 -368.56 492.239 C -387.14 484.494 -403.87 472.785 -418.54 459.065 C -419.38 458.286 -420.21 457.508 -421.08 456.706 C -429.64 448.418 -437.02 439.022 -443.54 429.065 C -444.24 428.001 -444.94 426.938 -445.66 425.842 C -452.26 415.487 -457.06 404.473 -461.54 393.065 C -461.81 392.384 -462.08 391.704 -462.36 391.002 C -463.99 386.748 -465.32 382.457 -466.54 378.065 C -466.74 377.399 -466.93 376.733 -467.13 376.046 C -470.81 362.944 -470.91 349.757 -470.92 336.252 C -470.92 335.376 -470.92 334.5 -470.92 333.596 C -470.92 318.129 -470 303.217 -465.48 288.315 C -465.18 287.298 -464.87 286.282 -464.56 285.234 C -452.76 247.229 -427.72 213.977 -394.54 192.065 C -393.96 191.681 -393.38 191.297 -392.78 190.901 C -377.69 181.078 -361.31 173.695 -343.76 169.6 C -341.6 169.08 -339.48 168.485 -337.34 167.877 C -325.57 164.788 -313.82 164.693 -301.73 164.69 Z M -272.81 208.6 C -276.48 211.708 -278.36 214.114 -278.81 219.01 C -278.91 226.219 -278.5 230.567 -273.54 236.065 C -268.84 240.307 -265.09 240.462 -259.03 240.303 C -253.25 239.75 -250.1 236.708 -246.23 232.627 C -243.68 227.255 -244.05 221.92 -244.54 216.065 C -247.06 211.029 -250.27 208.09 -255.34 205.799 C -261.94 203.603 -267.2 204.559 -272.81 208.6 Z M -397.42 157.065 C -395.64 157.867 -393.87 158.669 -392.09 159.471 C -387.24 161.664 -382.39 163.863 -377.54 166.065 C -376.9 166.355 -376.27 166.644 -375.61 166.942 C -372.59 168.315 -369.56 169.689 -366.54 171.065 C -367.81 173.594 -368.75 173.786 -371.3 174.913 C -372.09 175.266 -372.87 175.619 -373.67 175.983 C -374.52 176.36 -375.36 176.738 -376.23 177.128 C -403.45 189.699 -426.73 209.902 -444.05 234.291 C -445.19 235.897 -446.37 237.483 -447.54 239.065 C -447.87 239.065 -448.2 239.065 -448.54 239.065 C -448.61 238.409 -448.68 237.754 -448.76 237.078 C -449.5 230.182 -450.25 223.286 -451 216.39 C -451.27 213.825 -451.55 211.26 -451.83 208.695 C -453.8 190.208 -453.8 190.208 -456.17 171.768 C -457.28 163.681 -456.29 157.894 -451.54 151.065 C -434.91 134.77 -414.91 149.124 -397.42 157.065 Z M -158.04 145.753 C -152.48 149.089 -149.07 153.102 -146.54 159.065 C -144.53 174.319 -147.94 190.589 -149.79 205.765 C -150.65 212.81 -151.33 219.867 -151.95 226.937 C -152.28 230.706 -152.7 234.374 -153.54 238.065 C -156.46 235.291 -158.77 232.446 -161.04 229.128 C -179.82 203.012 -206.39 184.879 -235.54 172.065 C -233.18 169.705 -231.08 168.835 -228.02 167.483 C -226.87 166.969 -225.72 166.455 -224.53 165.925 C -223.26 165.367 -222 164.81 -220.73 164.253 C -218.09 163.087 -215.44 161.921 -212.8 160.753 C -212.12 160.453 -211.44 160.153 -210.75 159.843 C -206.66 158.032 -202.61 156.167 -198.57 154.244 C -196.02 153.025 -193.45 151.824 -190.88 150.624 C -189.09 149.776 -187.31 148.902 -185.53 148.029 C -176.66 143.905 -167.38 141.612 -158.04 145.753 Z" fill="#ffffff" style="transform-box: fill-box; transform-origin: 50% 50%;"/>
    </g>
  </g>
</svg>