<?xml version="1.0" encoding="utf-8"?>
<svg version="1.1" xmlns="http://www.w3.org/2000/svg" width="500px" height="500px" transform="rotate(0) scale(1, 1)" xmlns:bx="https://boxy-svg.com" viewBox="-1047.907 -142.923 2132.393 508.404">
  <g transform="matrix(1, 0, 0, 1, 16.325449, -450.86261)">
    <path d="M -660.93 651.212 C -636.44 652.288 -605.67 654.468 -586.92 671.868 C -582.27 677.345 -581.31 682.118 -581.53 689.118 C -582.59 697.293 -586.91 703.168 -593.2 708.286 C -605.1 716.68 -618.63 721.375 -632.25 726.247 C -634.44 727.037 -636.63 727.848 -638.81 728.681 C -648.25 732.226 -657.94 734.75 -667.67 737.338 C -675.02 739.312 -682.35 741.368 -689.68 743.409 C -695.26 744.955 -700.85 746.476 -706.46 747.923 C -707.38 748.162 -708.31 748.401 -709.27 748.647 C -715.08 749.88 -719.93 750.21 -725.3 747.524 C -729.48 743.844 -732.44 740.668 -733.24 735.013 C -733.55 728.994 -732.56 725.632 -728.83 720.903 C -723.27 715.953 -716.16 714.919 -709.11 713.337 C -700.22 711.273 -691.44 709.022 -682.7 706.36 C -679.1 705.265 -675.49 704.23 -671.86 703.212 C -660.22 699.887 -648.72 696.239 -637.34 692.091 C -632.13 690.212 -632.13 690.212 -629.93 690.212 C -629.93 689.552 -629.93 688.892 -629.93 688.212 C -641.58 686.719 -653.25 685.371 -664.93 684.087 C -666.59 683.904 -668.25 683.72 -669.91 683.536 C -673.92 683.094 -677.92 682.652 -681.93 682.212 C -681.01 680.988 -680.09 679.764 -679.17 678.54 C -678.62 677.807 -678.08 677.074 -677.51 676.319 C -676.29 674.693 -675.06 673.069 -673.84 671.446 C -669.02 664.969 -664.86 658.258 -660.93 651.212 Z M -868.43 443.712 C -870.36 448.231 -870.36 448.231 -870.17 457.384 C -869.71 462.748 -866.25 466.023 -862.36 469.524 C -857.56 471.884 -853.2 471.716 -847.93 471.212 C -843.11 469.607 -839.99 466.666 -837.05 462.649 C -835.19 456.963 -834.58 450.713 -836.77 445.021 C -839.27 441.113 -842.52 438.706 -846.76 436.876 C -855.83 434.103 -862 437.282 -868.43 443.712 Z M -815.11 395.837 C -813.86 395.834 -813.86 395.834 -812.59 395.831 C -797.58 395.835 -783.31 397.114 -768.8 401.274 C -767.74 401.578 -766.68 401.881 -765.58 402.193 C -721.49 415.216 -685.56 445.06 -663.1 485.024 C -644.2 520.237 -635.97 567.708 -647.19 606.797 C -647.56 607.992 -647.56 607.992 -647.93 609.212 C -648.21 610.135 -648.49 611.059 -648.77 612.01 C -661.2 651.999 -684.82 685.863 -719.93 709.212 C -720.79 709.79 -720.79 709.79 -721.68 710.38 C -732.44 717.46 -743.97 722.497 -755.93 727.212 C -756.6 727.48 -757.27 727.748 -757.96 728.025 C -762.21 729.697 -766.51 731.06 -770.93 732.212 C -771.67 732.407 -772.41 732.601 -773.18 732.802 C -786.7 736.145 -800.14 736.584 -813.99 736.587 C -815.24 736.59 -815.24 736.59 -816.52 736.593 C -838.63 736.587 -859.51 732.767 -879.93 724.212 C -880.59 723.939 -881.26 723.667 -881.94 723.386 C -900.53 715.641 -917.26 703.932 -931.93 690.212 C -932.76 689.433 -933.6 688.655 -934.46 687.853 C -943.03 679.565 -950.4 670.169 -956.93 660.212 C -957.63 659.148 -958.33 658.085 -959.05 656.989 C -965.64 646.634 -970.45 635.62 -974.93 624.212 C -975.2 623.531 -975.46 622.851 -975.74 622.149 C -977.38 617.895 -978.71 613.604 -979.93 609.212 C -980.12 608.546 -980.32 607.88 -980.52 607.193 C -984.19 594.091 -984.3 580.904 -984.3 567.399 C -984.31 566.523 -984.31 565.647 -984.31 564.743 C -984.31 549.276 -983.38 534.364 -978.86 519.462 C -978.56 518.445 -978.26 517.429 -977.94 516.381 C -966.15 478.376 -941.11 445.124 -907.93 423.212 C -907.35 422.828 -906.77 422.444 -906.17 422.048 C -891.08 412.225 -874.7 404.842 -857.15 400.747 C -854.99 400.227 -852.86 399.632 -850.73 399.024 C -838.96 395.935 -827.21 395.84 -815.11 395.837 Z M -786.2 439.747 C -789.87 442.855 -791.75 445.261 -792.2 450.157 C -792.29 457.366 -791.89 461.714 -786.93 467.212 C -782.23 471.454 -778.47 471.609 -772.42 471.45 C -766.64 470.897 -763.49 467.855 -759.61 463.774 C -757.07 458.402 -757.44 453.067 -757.93 447.212 C -760.45 442.176 -763.66 439.237 -768.72 436.946 C -775.32 434.75 -780.59 435.706 -786.2 439.747 Z M -910.8 388.212 C -909.03 389.014 -907.25 389.816 -905.48 390.618 C -900.63 392.811 -895.78 395.01 -890.93 397.212 C -890.29 397.502 -889.65 397.791 -889 398.089 C -885.97 399.462 -882.95 400.836 -879.93 402.212 C -881.19 404.741 -882.13 404.933 -884.69 406.06 C -885.47 406.413 -886.25 406.766 -887.06 407.13 C -887.9 407.507 -888.75 407.885 -889.61 408.275 C -916.84 420.846 -940.12 441.049 -957.44 465.438 C -958.58 467.044 -959.75 468.63 -960.93 470.212 C -961.26 470.212 -961.59 470.212 -961.93 470.212 C -962 469.556 -962.07 468.901 -962.14 468.225 C -962.89 461.329 -963.63 454.433 -964.38 447.537 C -964.66 444.972 -964.94 442.407 -965.21 439.842 C -967.19 421.355 -967.19 421.355 -969.56 402.915 C -970.67 394.828 -969.68 389.041 -964.93 382.212 C -948.3 365.917 -928.29 380.271 -910.8 388.212 Z M -671.43 376.9 C -665.87 380.236 -662.45 384.249 -659.93 390.212 C -657.92 405.466 -661.33 421.736 -663.18 436.912 C -664.03 443.957 -664.72 451.014 -665.33 458.084 C -665.67 461.853 -666.08 465.521 -666.93 469.212 C -669.85 466.438 -672.15 463.593 -674.43 460.275 C -693.21 434.159 -719.78 416.026 -748.93 403.212 C -746.57 400.852 -744.46 399.982 -741.41 398.63 C -740.25 398.116 -739.1 397.602 -737.91 397.072 C -736.65 396.514 -735.38 395.957 -734.11 395.4 C -731.47 394.234 -728.83 393.068 -726.19 391.9 C -725.51 391.6 -724.83 391.3 -724.13 390.99 C -720.05 389.179 -715.99 387.314 -711.96 385.391 C -709.4 384.172 -706.84 382.971 -704.27 381.771 C -702.48 380.923 -700.7 380.049 -698.91 379.176 C -690.05 375.052 -680.77 372.759 -671.43 376.9 Z" fill="#ffffff"/>
    <text style="fill: rgb(255, 255, 255); font-family: &quot;Source Code Pro&quot;; font-size: 67.8px; font-weight: 900; white-space: pre;" transform="matrix(2.443383, 0, 0, 3.444337, -2112.930664, 282.907013)" x="659.083" y="105.159">Zuhaitz-dev/fat</text>
  </g>
  <defs>
    <style bx:fonts="Source Code Pro">@import url(https://fonts.googleapis.com/css2?family=Source+Code+Pro%3Aital%2Cwght%400%2C200..900%3B1%2C200..900&amp;display=swap);</style>
  </defs>
</svg>