<svg version="1.1" xmlns="http://www.w3.org/2000/svg" width="500px" height="500px" transform="rotate(0) scale(1, 1)">
<path d="M0 0 C165 0 330 0 500 0 C500 165 500 330 500 500 C335 500 170 500 0 500 C0 335 0 170 0 0 Z " fill="#fefefe00" transform="translate(0,0)"/>
<path d="M0 0 C1.25240982 -0.00285507 1.25240982 -0.00285507 2.53012085 -0.00576782 C17.537381 -0.00189945 31.81058631 1.2774845 46.3125 5.4375 C47.37581543 5.74059082 48.43913086 6.04368164 49.53466797 6.35595703 C93.62312296 19.37955397 129.55120655 49.22294151 152.01269531 89.18701172 C170.91969511 124.39992365 179.13993462 171.87099279 167.92382812 210.95996094 C167.5593457 212.15540527 167.5593457 212.15540527 167.1875 213.375 C166.90841797 214.29829102 166.62933594 215.22158203 166.34179688 216.17285156 C153.91349022 256.1624455 130.29568661 290.02621407 95.1875 313.375 C94.3219751 313.95314453 94.3219751 313.95314453 93.43896484 314.54296875 C82.67723661 321.62281466 71.14585676 326.66041664 59.1875 331.375 C58.51750977 331.64328613 57.84751953 331.91157227 57.15722656 332.18798828 C52.9051342 333.85966415 48.60494007 335.22280716 44.1875 336.375 C43.4459668 336.56964844 42.70443359 336.76429688 41.94042969 336.96484375 C28.41938352 340.30822971 14.9761607 340.74657924 1.125 340.75 C-0.12543091 340.75285507 -0.12543091 340.75285507 -1.40112305 340.75576782 C-23.51191054 340.75005346 -44.392464 336.93007705 -64.8125 328.375 C-65.47685059 328.10236328 -66.14120117 327.82972656 -66.82568359 327.54882812 C-85.41419377 319.80398819 -102.14060246 308.09496186 -116.8125 294.375 C-117.64910156 293.59640625 -118.48570312 292.8178125 -119.34765625 292.015625 C-127.91403947 283.72842065 -135.28713011 274.33254496 -141.8125 264.375 C-142.51117188 263.31152344 -143.20984375 262.24804688 -143.9296875 261.15234375 C-150.52766913 250.79725817 -155.33105528 239.78314484 -159.8125 228.375 C-160.08078613 227.694375 -160.34907227 227.01375 -160.62548828 226.3125 C-162.2640121 222.05832051 -163.59597963 217.76699635 -164.8125 213.375 C-165.00714844 212.70887695 -165.20179688 212.04275391 -165.40234375 211.35644531 C-169.07897451 198.25394254 -169.18433349 185.06661619 -169.1875 171.5625 C-169.18940338 170.68603821 -169.19130676 169.80957642 -169.19326782 168.90655518 C-169.1894715 153.43888043 -168.26524464 138.5273667 -163.75 123.625 C-163.44545898 122.60841309 -163.14091797 121.59182617 -162.82714844 120.54443359 C-151.03017808 82.53921904 -125.9908036 49.28723463 -92.8125 27.375 C-92.23161621 26.99102051 -91.65073242 26.60704102 -91.05224609 26.21142578 C-75.95918885 16.38816204 -59.58204888 9.00462174 -42.03271484 4.91015625 C-39.87421956 4.38987676 -37.7485626 3.795169 -35.61328125 3.1875 C-23.84046567 0.09806824 -12.09197274 0.00297472 0 0 Z " fill="#ffffff" transform="translate(248.8125,79.625)"/>
<path d="M0 0 C24.48904391 1.07603375 55.25601965 3.25600478 74.01171875 20.65625 C78.65795277 26.13314669 79.61892975 30.90619037 79.40234375 37.90625 C78.33918452 46.08122195 74.01813783 51.95587149 67.73046875 57.07421875 C55.82966001 65.46777913 42.29636046 70.16251209 28.68017578 75.03515625 C26.48479321 75.82547798 24.3005027 76.63577907 22.12109375 77.46875 C12.67888087 81.01384075 2.99049897 83.5378386 -6.74560547 86.12597656 C-14.09399001 88.09951119 -21.42013651 90.15630593 -28.75024414 92.1965332 C-34.33319619 93.74275484 -39.9215464 95.26445071 -45.53125 96.7109375 C-46.45744141 96.94989746 -47.38363281 97.18885742 -48.33789062 97.43505859 C-54.14986722 98.66845128 -59.00353879 98.9982306 -64.375 96.3125 C-68.55302899 92.63185541 -71.51505666 89.45598864 -72.30859375 83.80078125 C-72.6203977 77.78202012 -71.62992084 74.41992614 -67.8984375 69.69140625 C-62.34247388 64.7413399 -55.2296726 63.70657416 -48.1875 62.125 C-39.28809695 60.06064242 -30.51120374 57.81008893 -21.7734375 55.1484375 C-18.17296203 54.05264062 -14.56069572 53.01775161 -10.9375 52 C0.71306204 48.67506791 12.20949373 45.0268314 23.59301758 40.87939453 C28.79440566 39 28.79440566 39 31 39 C31 38.34 31 37.68 31 37 C19.3456028 35.50703153 7.67914531 34.1587603 -4 32.875 C-5.66146989 32.69151085 -7.32292828 32.50791759 -8.984375 32.32421875 C-12.98945252 31.88161831 -16.99468057 31.44040564 -21 31 C-20.08203125 29.77604167 -19.1640625 28.55208333 -18.24609375 27.328125 C-17.69679199 26.59529297 -17.14749023 25.86246094 -16.58154297 25.10742188 C-15.36080381 23.4807747 -14.13627214 21.85697322 -12.91015625 20.234375 C-8.09254846 13.75657679 -3.93497154 7.04605841 0 0 Z " fill="#ffffff" transform="translate(403,335)"/>
<path d="M0 0 C1.77459083 0.80241239 3.54932963 1.60449762 5.32421875 2.40625 C10.17664708 4.59939959 15.02644915 6.79829321 19.875 9 C20.51272339 9.28955566 21.15044678 9.57911133 21.80749512 9.87744141 C24.83058623 11.25033328 27.85317553 12.6243224 30.875 14 C29.61050669 16.52898662 28.66840222 16.72133757 26.11328125 17.84765625 C25.33098145 18.20077881 24.54868164 18.55390137 23.74267578 18.91772461 C22.89946777 19.29550049 22.05625977 19.67327637 21.1875 20.0625 C-6.03413565 32.63436298 -29.3126873 52.83694161 -46.63525391 77.22583008 C-47.77805426 78.83196735 -48.94877343 80.41817806 -50.125 82 C-50.455 82 -50.785 82 -51.125 82 C-51.19572723 81.34426498 -51.26645447 80.68852997 -51.33932495 80.01292419 C-52.0835068 73.11685149 -52.83033166 66.22106848 -53.57861328 59.32543945 C-53.85661931 56.76040698 -54.13397713 54.19530416 -54.41064453 51.63012695 C-56.38596786 33.14254913 -56.38596786 33.14254913 -58.75463867 14.70263672 C-59.86284085 6.61575598 -58.87541444 0.82872076 -54.125 -6 C-37.49425528 -22.29544744 -17.49051468 -7.9405973 0 0 Z " fill="#ffffff" transform="translate(153.125,72)"/>
<path d="M0 0 C5.56019367 3.3361162 8.97600441 7.34991491 11.5 13.3125 C13.50851633 28.56636728 10.09763678 44.83650737 8.24694824 60.0125885 C7.39450408 67.05791341 6.70857929 74.11470645 6.09619141 81.18481445 C5.76232503 84.95313915 5.34544849 88.62193353 4.5 92.3125 C1.57816537 89.53803861 -0.72422297 86.6938415 -3 83.375 C-21.77800831 57.25965882 -48.35065433 39.12633172 -77.5 26.3125 C-75.14038986 23.95288986 -73.03455698 23.08223874 -69.98046875 21.73046875 C-68.82675781 21.21637451 -67.67304688 20.70228027 -66.484375 20.17260742 C-65.21898982 19.61452753 -63.95335835 19.05700579 -62.6875 18.5 C-60.04492444 17.33479704 -57.40304004 16.16804337 -54.76171875 15 C-54.08225189 14.70002609 -53.40278503 14.40005219 -52.70272827 14.09098816 C-48.61818605 12.27944884 -44.56422355 10.41471803 -40.53108215 8.49150085 C-37.97392247 7.2726494 -35.4085385 6.071659 -32.84268188 4.87124634 C-31.04875996 4.0230544 -29.26670454 3.14990628 -27.48510742 2.27612305 C-18.6176548 -1.84704134 -9.33760478 -4.1402695 0 0 Z " fill="#ffffff" transform="translate(392.5,60.6875)"/>
<path d="M0 0 C5.06110365 2.29111186 8.27476127 5.22921004 10.79296875 10.265625 C11.2862563 16.12038211 11.65041163 21.45546781 9.10546875 26.828125 C5.23381546 30.90905684 2.08510886 33.95036511 -3.6953125 34.50390625 C-9.75359478 34.66311422 -13.50659589 34.5074813 -18.20703125 30.265625 C-23.16829264 24.76801102 -23.57209492 20.419293 -23.4765625 13.2109375 C-23.02850567 8.31478025 -21.14786501 5.90854297 -17.4765625 2.80078125 C-11.86782401 -1.24064509 -6.60191639 -2.19674386 0 0 Z " fill="#000000" transform="translate(295.20703125,120.734375)"/>
<path d="M0 0 C4.23299359 1.83005362 7.48644798 4.2373008 9.984375 8.14453125 C12.17606218 13.83682989 11.56423277 20.08671932 9.703125 25.7734375 C6.76396847 29.79028476 3.64210332 32.73127806 -1.171875 34.3359375 C-6.4393678 34.84035989 -10.80366668 35.0076034 -15.609375 32.6484375 C-19.48970431 29.1466769 -22.95817451 25.87231706 -23.41015625 20.5078125 C-23.60867326 11.35513344 -23.60867326 11.35513344 -21.671875 6.8359375 C-15.24233976 0.40640226 -9.06944289 -2.7730311 0 0 Z " fill="#000000" transform="translate(217.171875,120.6640625)"/>
</svg>